<?xml version="1.0" encoding="UTF-8"?><svg id="Capa_2" xmlns="http://www.w3.org/2000/svg" viewBox="0 0 463.62 253.18"><defs><style>.cls-1{fill:#1d1d1b;}</style></defs><g id="Capa_1-2"><path class="cls-1" d="M443.62,170.41c-.98-.05-1.96-.1-2.93-.18-1.56-.13-4.4-.97-5.71-1.78-1.39-.87-2.78-1.9-3.84-3.14-1.46-1.7-2.03-2.95-2.4-5.09-.03-.18-.12-.88-.18-1.43-.06-.49-.09-.97-.09-1.46v-21.56s-7.11.1-7.11.1l.12,21.62c-.03,2.26-.76,4.31-.99,4.83-.25.56-.95,1.84-1.02,1.96-.1.17-.73,1.17-.85,1.33-2.33,3.05-4.44,3.86-8.02,4.4-.83.12-1.68.18-2.52.19l-80.77.04c-6.5-.66-11.7-5.65-12.24-12.23-.04-.53-.08-1.07-.12-1.6v-20.53h-7.35c.05.66.07,2.38.11,3.04v17.49c-.03.51-.05,1.04-.09,1.55-.53,6.57-5.67,12.22-12.26,12.29-10.88.12-22.9.47-33.49,0-3.07-.31-6.03-3.74-4.45-7.49.62-1.47,2.06-2.62,3.05-3.59,44.93-44.61,88.65-86.73,133.06-130.45,3.63-3.57,7.11-7.22,10.6-10.87l11.98-11.92-5.51-5.51-43.13,43.13c-32.88,32.41-65.2,64.26-98.32,96.99-4.25,4.2-8.52,8.49-12.61,12.58-1.05,1.05-1.73,1.05-2.22,1.07-.88.03-1.79-.21-2.29-.79-.48-.56-.48-1.4-.35-2.78.21-2.28.7-4.66.96-6.62,2.87-21.81-.21-40.47-6.57-60.79-.7-2.25-2.11-4.65-2.38-7.1-1.09-9.6,3-14.88,9.13-21.04,3.52-3.53,7.02-7.13,10.53-10.76h0s38.81-38.57,38.81-38.57l-1.53-1.53c-.42-.44-.9-.91-1.38-1.38l-2.08-2.08-11.79,11.79c-.59.55-1.18,1.11-1.77,1.68-11.73,11.49-22.85,23.08-34.29,33.87-2.56,2.42-5.41,5.98-9.38,6.35-10.14.95-11.29-3.9-16.75-10.26-16.03-18.7-39.72-33.75-63.82-40.05C126.2-4.56,90.25.64,61.37,18.23,36.1,33.62,17.1,57.32,7,85.21c-27.74,78.86,30.41,164.74,113.51,167.89,11.36.43,22.46-.71,33.39-2.62,2.64-.46,6.82-1.7,9.48-2.51,26-7.91,50.27-25.23,66.02-46.84,3.35-4.59,5.83-9.89,9.05-14.42,3.16-4.45,6.86-8.86,14.44-9.03,13.74-.31,27.5-.04,40.82.17,4.9.08,6.44.79,8.96,2.79,2.06,1.64,3.58,3.82,4.39,6.47.42,1.38.56,2.82.56,4.26l-.02,44.49h0v14.4h7.28v-5.04l.2-53.46c0-1.12.07-2.24.31-3.33.89-4.16,3.27-7.35,6.83-9.21,2.06-1.08,4.39-1.53,6.72-1.53h78.59c1.79,0,3.58.27,5.24.94,4.69,1.91,7.51,6.04,8.47,11.15.22,1.18.29,2.39.29,3.59l.2,56.24h6.54l.21-59.2c.34-4.06,1.86-6.16,4.54-8.96.33-.34.6-.57.81-.77.18-.18,1.35-.99,2.56-1.63,1.72-.91,3.61-1.24,5.56-1.25l1.61-.04v.02h20.1v-7.4l-20,.05ZM220.91,200.25c-24.12,30.81-64.6,49.03-104.4,45.36-3.51-.32-7.96-1.35-11.49-1.99-43.17-7.9-78.9-39.67-92.03-81.25C-8.62,93.87,34.94,21.75,105.52,9.45c10.06-1.75,21.66-2.96,32.01-2,1.33.12,2.64.33,3.67.47,3.05.43,5.55.93,8.77,1.57,19.55,3.84,39,13.38,53.84,26.29,5.36,4.67,19.94,18.06,20.85,24.86.63,4.63.29,8.78-2.08,12.89-2.28,3.97-6.61,7.35-9.75,10.48-26.68,26.58-54.87,53.86-81.09,79.94-3.46,3.44-9.23,8.38-11.99,11.99-.48.63-.61.94-.48,1.76l96.9.15h3.15c2.69,0,3.86,1.2,4.62,1.83.78.65,1.69,2.2,2.31,3.49,2.03,4.24-.94,11.47-5.34,17.08ZM244.64,147.48c-1.74,9.2-5.75,17.29-14.84,21.11-1.02.43-3.66,1.61-5.93,1.61h-87.11c-.38-1.78,1.01-1.82,2.01-2.73,6.56-5.94,12.92-12.95,19.12-19.08,18.45-18.24,38.32-37.64,56.81-55.79,4.13-4.06,8.87-9.76,13.22-13.26,3.09-2.49,7.06-2.26,9.18,1.32,1.22,2.05,3.15,8,3.95,10.53,5.27,16.71,6.84,39.09,3.59,56.28Z"/></g></svg>