<?xml version="1.0" encoding="UTF-8"?><svg id="Capa_2" xmlns="http://www.w3.org/2000/svg" viewBox="0 0 40.07 15.76"><defs><style>.cls-1{fill:#f1f2f1;}</style></defs><g id="Capa_1-2"><path class="cls-1" d="M7.52,4.19l3.31,5.33h.02v-5.33h1.64v7.94h-1.75l-3.3-5.32h-.02v5.32h-1.64v-7.94h1.74Z"/><path class="cls-1" d="M19.96,4.19v1.47h-4.19v1.7h3.85v1.36h-3.85v1.95h4.28v1.47h-6.03v-7.94h5.94Z"/><path class="cls-1" d="M20.62,4.19h2.02l1.56,2.54,1.61-2.54h1.91l-2.55,3.79,2.77,4.15h-2.08l-1.73-2.75-1.77,2.75h-1.96l2.77-4.16-2.56-3.78Z"/><path class="cls-1" d="M28.03,5.66v-1.47h6.51v1.47h-2.38v6.47h-1.75v-6.47h-2.38Z"/><path class="cls-1" d="M3.74,0v1.94h-1.73v11.89h1.73v1.94H0V0h3.74Z"/><path class="cls-1" d="M36.34,0v1.94h1.73v11.89h-1.73v1.94h3.74V0h-3.74Z"/></g></svg>