<?xml version="1.0" encoding="UTF-8"?><svg id="Capa_2" xmlns="http://www.w3.org/2000/svg" viewBox="0 0 40.07 15.76"><defs><style>.cls-1{fill:#f1f2f1;}</style></defs><g id="Capa_1-2"><path class="cls-1" d="M3.74,0v1.94h-1.73v11.89h1.73v1.94H0V0h3.74Z"/><path class="cls-1" d="M36.34,0v1.94h1.73v11.89h-1.73v1.94h3.74V0h-3.74Z"/><path class="cls-1" d="M9.38,4.26c.49,0,.91.07,1.25.21.34.14.62.33.84.57.22.23.37.5.47.8.1.3.15.61.15.94s-.05.62-.15.93c-.1.3-.26.57-.47.81-.22.23-.5.42-.84.57-.34.14-.76.21-1.25.21h-1.81v2.82h-1.73v-7.85h3.54ZM8.9,7.96c.2,0,.39-.01.57-.04s.34-.09.48-.17c.14-.08.25-.2.34-.36.08-.15.13-.36.13-.6s-.04-.45-.13-.6c-.08-.15-.2-.27-.34-.36-.14-.08-.3-.14-.48-.17s-.37-.04-.57-.04h-1.34v2.35h1.34Z"/><path class="cls-1" d="M17.41,4.26c.35,0,.67.06.95.17.28.11.52.27.73.47.2.2.36.43.46.69.11.26.16.54.16.84,0,.46-.1.86-.29,1.2-.2.34-.51.59-.95.77v.02c.21.06.39.15.53.27.14.12.25.26.34.43s.15.35.19.54c.04.2.07.4.08.59,0,.12.01.27.02.44,0,.17.02.34.04.52.02.18.05.34.09.5.04.16.1.29.18.4h-1.73c-.1-.25-.15-.55-.18-.89-.02-.34-.05-.67-.1-.99-.06-.41-.18-.71-.37-.9-.19-.19-.5-.29-.94-.29h-1.73v3.07h-1.73v-7.85h4.24ZM16.79,7.81c.4,0,.69-.09.89-.26.2-.18.3-.46.3-.86s-.1-.66-.3-.83c-.2-.17-.49-.26-.89-.26h-1.89v2.21h1.89Z"/><path class="cls-1" d="M26.99,4.26v1.45h-4.15v1.68h3.81v1.34h-3.81v1.92h4.23v1.45h-5.96v-7.85h5.87Z"/><path class="cls-1" d="M29.95,12.12l-2.54-7.85h1.77l1.75,5.52h.02l1.77-5.52h1.78l-2.61,7.85h-1.95Z"/></g></svg>