{
	"asset":{
		"version":"2.0",
		"generator":""
	},
	"scenes":[{
		"nodes":[0,
		1]
	}],
	"nodes":[{
		"scale":[1.0,
		1.0,
		1.0],
		"name":"Fill",
		"translation":[-0.08178684860467911,
		-0.044658973813056949,
		0.0],
		"rotation":[0.0,
		0.0,
		0.0,
		-1.0],
		"children":[2]
	},
	{
		"scale":[1.0,
		1.0,
		1.0],
		"name":"RS Cámara RS",
		"translation":[0.000006677523742837366,
		-0.00007520776853198186,
		0.238650843501091],
		"rotation":[0.016777485609054567,
		-0.12871988117694856,
		-0.002178029390051961,
		-0.9915366768836975]
	},
	{
		"name":"Fill",
		"mesh":0
	}],
	"meshes":[{
		"name":"Fill",
		"primitives":[{
			"attributes":{
				"POSITION":1,
				"NORMAL":2,
				"TEXCOORD_0":3
			},
			"indices":0,
			"material":0
		}]
	}],
	"accessors":[{
		"bufferView":0,
		"type":"SCALAR",
		"componentType":5123,
		"count":18084,
		"byteOffset":0,
		"min":[0],
		"max":[18083]
	},
	{
		"bufferView":1,
		"type":"VEC3",
		"componentType":5126,
		"count":18084,
		"byteOffset":0,
		"min":[0.000004764588084071875,
		0.000028222220862517135,
		-0.1699964702129364],
		"max":[0.16356894373893739,
		0.08928972482681275,
		0.0000035277773804409664]
	},
	{
		"bufferView":1,
		"type":"VEC3",
		"componentType":5126,
		"count":18084,
		"byteOffset":12,
		"min":[-1.0,
		-1.0,
		-1.0],
		"max":[1.0,
		1.0,
		1.0]
	},
	{
		"bufferView":1,
		"type":"VEC2",
		"componentType":5126,
		"count":18084,
		"byteOffset":24,
		"min":[0.0,
		0.0],
		"max":[1.0,
		1.0]
	}],
	"bufferViews":[{
		"buffer":0,
		"byteOffset":0,
		"byteLength":36168,
		"target":34963
	},
	{
		"buffer":0,
		"byteOffset":36168,
		"byteLength":578688,
		"byteStride":32,
		"target":34962
	}],
	"buffers":[{
		"uri":"data:application/octet-stream;base64,",
		"byteLength":614856
	}],
	"materials":[{
		"pbrMetallicRoughness":{
			"baseColorFactor":[0.0047999999999999878,
			0.006199999999999954,
			0.006666666666666651,
			1.0],
			"metallicFactor":0.8060000382829458,
			"roughnessFactor":0.3333333333333333
		},
		"emissiveFactor":[0.0,
		0.0,
		0.0],
		"alphaMode":"OPAQUE",
		"doubleSided":false,
		"name":"Metal Burnished 001 50cm"
	}]
}